<svg xmlns="http://www.w3.org/2000/svg" width="121.5" height="230.029" viewBox="0 0 121.5 230.029"><g transform="translate(-268 -2379)"><ellipse cx="6.485" cy="6.485" rx="6.485" ry="6.485" transform="translate(268 2379)" fill="#d88989"/><ellipse cx="6.485" cy="6.485" rx="6.485" ry="6.485" transform="translate(304.176 2379)" fill="#d88989"/><ellipse cx="6.485" cy="6.485" rx="6.485" ry="6.485" transform="translate(268 2414.118)" fill="#d88989"/><ellipse cx="6.485" cy="6.485" rx="6.485" ry="6.485" transform="translate(304.176 2414.118)" fill="#d88989"/><ellipse cx="6.485" cy="6.485" rx="6.485" ry="6.485" transform="translate(340.353 2379)" fill="#d88989"/><ellipse cx="6.485" cy="6.485" rx="6.485" ry="6.485" transform="translate(376.529 2379)" fill="#d88989"/><ellipse cx="6.485" cy="6.485" rx="6.485" ry="6.485" transform="translate(340.353 2414.118)" fill="#d88989"/><ellipse cx="6.485" cy="6.485" rx="6.485" ry="6.485" transform="translate(376.529 2414.118)" fill="#d88989"/><ellipse cx="6.485" cy="6.485" rx="6.485" ry="6.485" transform="translate(340.353 2451.353)" fill="#d88989"/><ellipse cx="6.485" cy="6.485" rx="6.485" ry="6.485" transform="translate(376.529 2451.353)" fill="#d88989"/><ellipse cx="6.485" cy="6.485" rx="6.485" ry="6.485" transform="translate(340.353 2486.472)" fill="#d88989"/><ellipse cx="6.485" cy="6.485" rx="6.485" ry="6.485" transform="translate(376.529 2486.472)" fill="#d88989"/><ellipse cx="6.485" cy="6.485" rx="6.485" ry="6.485" transform="translate(268 2451.353)" fill="#d88989"/><ellipse cx="6.485" cy="6.485" rx="6.485" ry="6.485" transform="translate(304.176 2451.353)" fill="#d88989"/><ellipse cx="6.485" cy="6.485" rx="6.485" ry="6.485" transform="translate(268 2486.472)" fill="#d88989"/><ellipse cx="6.485" cy="6.485" rx="6.485" ry="6.485" transform="translate(304.176 2486.472)" fill="#d88989"/><ellipse cx="6.485" cy="6.485" rx="6.485" ry="6.485" transform="translate(268 2523.706)" fill="#d88989"/><ellipse cx="6.485" cy="6.485" rx="6.485" ry="6.485" transform="translate(304.176 2523.706)" fill="#d88989"/><ellipse cx="6.485" cy="6.485" rx="6.485" ry="6.485" transform="translate(268 2558.824)" fill="#d88989"/><ellipse cx="6.485" cy="6.485" rx="6.485" ry="6.485" transform="translate(304.176 2558.824)" fill="#d88989"/><ellipse cx="6.485" cy="6.485" rx="6.485" ry="6.485" transform="translate(340.353 2523.706)" fill="#d88989"/><ellipse cx="6.485" cy="6.485" rx="6.485" ry="6.485" transform="translate(376.529 2523.706)" fill="#d88989"/><ellipse cx="6.485" cy="6.485" rx="6.485" ry="6.485" transform="translate(340.353 2558.824)" fill="#d88989"/><ellipse cx="6.485" cy="6.485" rx="6.485" ry="6.485" transform="translate(376.529 2558.824)" fill="#d88989"/><ellipse cx="6.485" cy="6.485" rx="6.485" ry="6.485" transform="translate(340.353 2596.059)" fill="#d88989"/><ellipse cx="6.485" cy="6.485" rx="6.485" ry="6.485" transform="translate(376.529 2596.059)" fill="#d88989"/><ellipse cx="6.485" cy="6.485" rx="6.485" ry="6.485" transform="translate(268 2596.059)" fill="#d88989"/><ellipse cx="6.485" cy="6.485" rx="6.485" ry="6.485" transform="translate(304.176 2596.059)" fill="#d88989"/></g></svg>